<svg width="200" height="200" viewBox="0 0 100 120" fill="none" xmlns="http://www.w3.org/2000/svg">
  <path d="M49.5 40V20M49.5 20L41.5 24M49.5 20L57.5 24M20.5 24H78.5M78.5 24L70.5 30M20.5 24L28.5 30" stroke="#D1D5DB" stroke-width="1.5" stroke-linecap="round" stroke-linejoin="round"/>
  <path d="M49.5 40C55.0228 40 59.5 35.5228 59.5 30C59.5 24.4772 55.0228 20 49.5 20C43.9772 20 39.5 24.4772 39.5 30C39.5 35.5228 43.9772 40 49.5 40Z" stroke="#D1D5DB" stroke-width="1.5"/>
  <path d="M49.5 55V40" stroke="#D1D5DB" stroke-width="1.5" stroke-linecap="round"/>
  <path d="M49.5 75C49.5 75 55.5 72 59.5 68C63.5 64 65.5 58 65.5 58M49.5 75V110.5M49.5 75C49.5 75 43.5 72 39.5 68C35.5 64 33.5 58 33.5 58M33.5 58L28.5 60M33.5 58C33.5 58 34.5 54.5 38.5 53.5C42.5 52.5 44.5 55.5 44.5 55.5M65.5 58L70.5 60M65.5 58C65.5 58 64.5 54.5 60.5 53.5C56.5 52.5 54.5 55.5 54.5 55.5M44.5 55.5S45.5 54 49.5 54C53.5 54 54.5 55.5 54.5 55.5" stroke="#D1D5DB" stroke-width="1.5" stroke-linecap="round" stroke-linejoin="round"/>
</svg>